<?xml version="1.0" standalone="no"?>
<!DOCTYPE svg PUBLIC "-//W3C//DTD SVG 20010904//EN"
 "http://www.w3.org/TR/2001/REC-SVG-20010904/DTD/svg10.dtd">
<svg version="1.0" xmlns="http://www.w3.org/2000/svg"
 width="894.000000pt" height="816.000000pt" viewBox="0 0 894.000000 816.000000"
 preserveAspectRatio="xMidYMid meet">
<rect width="100%" height="100%" fill="white"/>
<g transform="translate(0.000000,816.000000) scale(0.100000,-0.100000)"
fill="#000000" stroke="none">
<path d="M5380 6468 c-47 -18 -79 -22 -221 -24 -133 -1 -191 -7 -290 -27 -68
-14 -155 -28 -194 -32 -121 -10 -191 -61 -243 -173 -18 -41 -26 -81 -33 -170
-5 -64 -11 -128 -13 -142 -2 -14 0 -153 4 -310 6 -229 11 -294 24 -330 13 -33
18 -86 21 -195 2 -82 9 -181 15 -219 8 -42 10 -104 7 -155 -4 -47 -3 -149 2
-226 7 -119 13 -149 35 -200 96 -215 112 -236 189 -255 23 -6 67 -17 97 -25
69 -19 173 -25 270 -15 41 5 151 11 244 15 93 3 173 8 178 11 5 3 120 10 256
14 136 5 263 13 283 19 89 27 161 106 202 223 60 171 71 227 82 403 7 110 22
232 36 305 14 74 21 734 8 830 -15 113 -58 290 -81 338 -30 58 -172 201 -233
233 -27 14 -77 34 -110 44 -33 10 -67 24 -76 32 -10 8 -59 18 -115 24 -54 6
-101 12 -104 14 -3 2 -46 6 -96 9 -75 4 -98 2 -144 -16z m380 -100 c223 -54
267 -78 373 -203 67 -79 68 -79 108 -255 40 -176 46 -722 10 -957 -11 -70 -22
-162 -25 -203 -3 -41 -8 -109 -11 -150 -13 -170 -85 -390 -147 -447 -50 -47
-91 -56 -303 -64 -191 -7 -364 -17 -705 -41 -153 -10 -157 -10 -265 17 -60 14
-117 31 -127 36 -20 11 -58 81 -78 144 -7 22 -22 56 -32 77 -17 32 -19 65 -23
285 -2 136 -8 268 -14 293 -6 25 -10 105 -11 179 0 110 -4 146 -22 205 -22 68
-23 84 -22 441 0 425 4 453 75 530 47 51 74 61 184 71 44 4 109 16 145 26 51
16 116 22 305 29 132 6 267 14 300 18 80 12 136 6 285 -31z"/>
<path d="M4756 6101 c-68 -8 -100 -36 -111 -99 -14 -82 69 -203 150 -218 85
-16 143 56 144 179 1 33 -5 70 -14 86 -14 28 -70 62 -97 60 -7 -1 -39 -5 -72
-8z m77 -42 c75 -34 56 -219 -22 -219 -17 0 -81 60 -97 91 -17 34 -18 103 -1
117 7 6 30 12 52 15 22 2 41 4 42 5 1 1 13 -3 26 -9z"/>
<path d="M5653 6060 c-28 -11 -50 -46 -56 -87 -14 -91 59 -235 137 -273 52
-25 70 -25 122 -1 79 36 136 150 114 229 -13 51 -63 92 -109 92 -17 0 -49 9
-70 20 -48 24 -108 33 -138 20z m90 -57 c4 -3 0 -15 -10 -25 -15 -17 -14 -18
45 -18 36 0 62 -4 62 -10 0 -6 11 -8 25 -4 20 5 27 1 36 -20 17 -37 -4 -101
-47 -144 -29 -29 -39 -33 -66 -28 -18 3 -42 16 -55 28 -50 47 -86 165 -63 208
10 20 58 28 73 13z"/>
<path d="M5270 5611 c-8 -6 -31 -11 -51 -11 -73 0 -139 -29 -194 -83 -60 -61
-81 -117 -79 -217 1 -87 45 -179 127 -266 91 -98 146 -123 288 -131 82 -5 107
-2 165 17 37 12 81 31 96 41 94 68 146 259 110 404 -30 121 -101 191 -231 231
-62 18 -212 28 -231 15z m32 -71 c61 -17 74 -68 18 -70 -28 -2 35 -21 83 -26
107 -10 167 -56 167 -126 0 -77 -129 -178 -230 -178 -50 0 -102 26 -120 61
-27 50 -5 167 35 183 19 7 103 -3 127 -15 26 -14 31 7 8 29 -20 18 -80 32
-138 32 -67 0 -129 -134 -102 -222 28 -96 145 -157 248 -129 100 26 202 108
231 184 26 66 7 133 -49 181 -34 28 -128 60 -152 51 -9 -4 -22 4 -32 20 -10
15 -16 28 -14 30 8 8 116 -22 162 -44 106 -52 148 -174 115 -333 -18 -86 -53
-136 -113 -164 -98 -45 -241 -42 -336 7 -45 22 -120 101 -153 159 -92 160 -32
332 128 371 44 10 76 10 117 -1z"/>
<path d="M4843 4552 c-20 -6 -18 -9 18 -26 52 -25 62 -46 57 -115 -5 -69 -34
-131 -71 -151 -27 -15 -29 -14 -62 22 -50 54 -72 160 -42 202 13 18 48 19 96
5 26 -8 22 20 -6 34 -60 31 -89 31 -125 -2 -32 -28 -33 -32 -33 -103 0 -127
68 -228 155 -230 83 -3 172 145 156 260 -7 52 -27 79 -73 98 -35 15 -37 15
-70 6z"/>
<path d="M5661 4541 c-63 -9 -83 -39 -85 -128 -1 -83 31 -156 82 -186 79 -46
203 -2 261 94 26 43 26 72 1 124 -42 86 -120 115 -259 96z m35 -59 c7 -4 13
-16 15 -27 6 -30 33 -25 37 8 4 31 12 33 52 12 37 -19 70 -62 70 -91 0 -33
-44 -80 -94 -99 -38 -15 -48 -15 -73 -3 -37 18 -63 71 -63 134 0 62 22 89 56
66z"/>
<path d="M3170 6430 c-161 -29 -266 -69 -440 -167 -19 -11 -62 -35 -95 -53
-181 -100 -300 -202 -350 -301 l-21 -40 -18 56 c-20 64 -88 149 -145 180 -44
24 -158 32 -219 16 -85 -23 -120 -111 -143 -364 -10 -100 -10 -174 0 -340 13
-231 28 -346 66 -507 38 -162 56 -344 55 -535 -2 -263 25 -387 75 -345 13 11
16 25 11 74 -3 34 -10 176 -15 316 -9 256 -24 372 -71 560 -60 243 -79 765
-35 960 29 127 44 140 168 140 105 0 176 -72 227 -231 18 -57 41 -123 52 -146
14 -31 21 -80 28 -195 5 -84 18 -198 30 -253 40 -192 80 -420 80 -453 0 -18 4
-40 10 -50 18 -33 51 -328 56 -512 5 -159 4 -189 -10 -215 -20 -37 -20 -58 -2
-98 8 -18 16 -43 19 -57 l6 -25 -19 23 -19 23 -7 -26 c-3 -14 -1 -46 5 -72 27
-106 87 -140 228 -129 100 7 156 30 161 64 5 30 -22 38 -46 14 -14 -14 -41
-22 -86 -27 -97 -11 -150 0 -181 36 -14 17 -23 35 -20 39 6 10 455 9 455 0 0
-12 -44 -87 -64 -108 -27 -31 -88 -62 -120 -62 -14 0 -28 -5 -32 -11 -11 -19
-212 -6 -253 15 -61 32 -105 96 -66 96 8 0 15 7 15 15 0 18 -75 21 -86 4 -4
-7 -13 7 -21 32 -32 94 -81 186 -110 207 -85 60 -198 47 -458 -52 l-70 -27 75
6 c41 4 116 15 165 26 114 26 223 23 255 -6 33 -29 100 -181 100 -225 0 -21 7
-43 15 -50 17 -14 17 -14 33 15 8 14 11 16 12 5 0 -25 59 -89 99 -109 61 -32
153 -45 264 -38 100 6 250 38 274 59 19 16 16 45 -7 61 -21 14 -21 14 5 62 14
26 25 59 25 71 l0 24 308 -4 c352 -5 517 4 652 34 105 23 140 41 140 70 0 20
-24 28 -34 11 -3 -5 -59 -19 -123 -32 -113 -23 -135 -24 -532 -23 -369 0 -414
2 -422 17 -7 11 -16 14 -32 9 -12 -4 -94 -7 -182 -7 -128 1 -166 4 -190 17
-62 33 -62 33 -68 283 -7 231 -17 364 -40 500 l-13 72 81 6 c44 3 122 16 173
30 73 19 95 22 98 12 8 -21 108 -83 163 -101 30 -9 120 -21 218 -28 164 -11
168 -12 171 -34 9 -59 147 -145 264 -163 74 -12 108 -2 108 31 0 26 -11 31
-90 41 -40 5 -92 20 -122 35 -51 25 -108 70 -108 85 0 3 25 9 56 11 40 3 61
10 70 23 17 23 17 27 1 49 -12 17 -22 17 -134 7 -237 -22 -364 -11 -470 39
l-67 31 34 17 c46 23 59 47 39 68 -15 14 -27 12 -140 -24 -134 -43 -200 -57
-295 -66 l-61 -5 -27 147 c-16 81 -37 192 -47 247 -11 55 -24 125 -29 155 -13
79 -22 312 -11 306 13 -8 136 -33 204 -41 l57 -6 0 -40 c0 -81 39 -128 187
-223 89 -57 167 -77 317 -78 96 -1 122 2 196 26 47 16 101 37 121 48 40 22 85
85 100 140 13 49 17 158 9 230 l-6 57 86 63 c137 101 160 125 160 164 0 44
-27 57 -49 24 -31 -45 -190 -181 -210 -180 -3 1 -17 24 -31 53 -38 79 -86 102
-210 102 -66 0 -108 -5 -135 -17 -22 -9 -87 -31 -145 -48 -58 -18 -130 -45
-160 -60 -75 -38 -158 -106 -189 -155 l-26 -41 -115 17 c-180 26 -218 48 -211
124 9 97 127 204 374 339 37 20 84 46 105 58 112 64 208 101 342 133 89 21
313 31 387 17 32 -7 101 -16 153 -22 123 -14 174 -28 159 -46 -13 -15 -4 -34
16 -34 42 0 72 -107 85 -305 6 -82 17 -231 25 -330 23 -275 25 -297 35 -485
14 -241 29 -400 46 -495 8 -44 17 -138 20 -210 3 -71 14 -170 24 -220 11 -49
22 -126 26 -170 7 -86 17 -115 39 -115 16 0 28 33 21 58 -2 9 -7 49 -11 87 -3
39 -13 95 -22 125 -11 39 -15 96 -15 196 0 78 -6 176 -14 220 -27 154 -33 217
-69 784 -4 47 -10 121 -15 165 -5 44 -19 188 -30 320 -22 271 -38 335 -98 404
-83 95 -85 97 -147 109 -228 43 -412 50 -565 22z m205 -506 c34 -16 59 -52 69
-99 6 -30 4 -32 -72 -73 -75 -40 -80 -41 -85 -22 -7 29 -35 35 -68 16 -74 -44
-509 -93 -509 -58 0 5 21 30 48 56 51 51 176 118 295 157 63 20 75 21 143 11
40 -7 83 -17 94 -24 14 -9 23 -9 30 -2 14 14 4 39 -23 53 -19 10 -17 10 13 5
19 -3 49 -12 65 -20z m93 -301 c-8 -177 -41 -216 -223 -259 -81 -19 -239 -14
-318 10 -89 27 -231 132 -243 180 -12 48 -8 50 149 51 l147 0 0 -37 c0 -109
182 -174 247 -89 21 27 16 92 -9 118 -12 13 -27 23 -35 23 -7 0 -13 7 -13 16
0 13 5 15 23 9 46 -16 85 -8 172 37 50 24 94 45 99 46 5 1 7 -46 4 -105z
m-294 -97 c-3 -9 -16 -15 -28 -15 -16 1 -17 2 -3 6 11 3 17 14 17 31 1 22 2
24 10 10 6 -9 7 -23 4 -32z"/>
<path d="M2210 5545 c0 -39 -26 -70 -112 -135 l-79 -60 -22 20 c-27 26 -51 32
-113 28 -41 -3 -49 -6 -49 -23 0 -18 8 -20 68 -23 37 -2 67 -5 67 -8 0 -2 -6
-13 -12 -25 -11 -17 -10 -22 5 -34 42 -31 38 -122 -8 -165 -33 -31 -32 -40 4
-40 32 0 76 44 87 86 6 24 2 72 -10 109 -6 16 0 24 26 38 38 21 133 107 166
151 30 40 31 106 2 106 -15 0 -20 -7 -20 -25z"/>
<path d="M2873 4382 c-9 -5 10 -19 55 -41 113 -55 162 -109 162 -178 0 -33 -6
-50 -24 -68 -42 -42 -106 -68 -183 -73 -64 -4 -78 -1 -135 25 -97 45 -151 137
-134 228 11 55 31 68 90 60 28 -3 78 -17 112 -31 67 -27 74 -28 74 -15 0 20
-33 40 -107 65 -137 46 -193 30 -219 -62 -27 -90 5 -182 87 -256 112 -101 279
-106 426 -13 108 69 108 198 0 293 -62 55 -168 89 -204 66z"/>
<path d="M6885 3799 c-4 -6 2 -21 14 -33 27 -29 28 -86 2 -110 -29 -26 -56
-17 -58 19 -3 28 -2 29 7 7 14 -33 34 -22 38 20 4 42 -17 63 -53 54 -29 -7
-45 -40 -45 -92 0 -50 14 -71 54 -78 78 -15 136 41 136 129 0 56 -73 120 -95
84z"/>
<path d="M5870 3740 c-19 -3 -45 -12 -56 -18 -15 -8 -126 -12 -365 -13 -370
-2 -541 -12 -575 -34 -30 -20 -41 -55 -58 -197 -20 -157 -20 -201 -2 -264 38
-128 70 -327 91 -559 8 -88 19 -184 25 -214 14 -77 12 -133 -6 -177 -14 -34
-15 -48 -4 -109 16 -91 36 -132 73 -152 36 -18 180 -20 793 -12 373 5 381 6
412 28 49 35 70 68 97 153 22 70 25 96 24 221 0 78 -6 194 -13 257 -7 63 -14
173 -15 245 -1 82 -9 161 -21 215 -10 47 -26 134 -34 193 -9 59 -22 122 -30
140 -19 47 -114 197 -145 230 -49 54 -124 80 -191 67z m-20 -95 c164 -9 150 0
234 -139 58 -97 70 -132 81 -236 3 -36 15 -103 25 -150 11 -51 21 -151 25
-250 3 -91 10 -194 15 -230 5 -36 10 -74 10 -84 0 -17 -2 -18 -17 -4 -10 8
-40 23 -66 33 -82 31 -90 23 -172 -179 -26 -62 -33 -70 -73 -88 -35 -16 -59
-19 -111 -15 -269 20 -440 28 -523 25 l-97 -5 -6 31 c-9 47 -40 126 -85 216
-4 9 -25 16 -53 18 -52 3 -52 2 -62 137 -9 112 -52 354 -81 455 -27 94 -29
150 -13 319 8 87 15 120 28 131 14 13 78 16 408 19 215 2 455 0 533 -4z m329
-1115 l44 -20 -7 -51 c-6 -47 -5 -50 12 -45 18 6 19 1 15 -76 -4 -94 -34 -196
-68 -236 l-23 -27 -301 -1 c-166 -1 -366 -5 -446 -9 -80 -4 -197 -4 -260 0
-135 9 -136 10 -139 114 l-1 66 51 3 c48 3 52 1 58 -23 9 -35 48 -31 56 5 l6
25 214 3 c145 2 252 -2 330 -12 63 -8 127 -12 143 -9 16 3 27 1 27 -6 0 -21
246 -5 292 20 24 13 50 65 46 92 -5 38 -33 32 -50 -11 -14 -36 -18 -38 -80
-50 -36 -7 -80 -12 -98 -12 -32 0 -32 0 -12 18 19 15 40 62 96 215 20 53 30
56 95 27z m-1126 -12 c3 -13 17 -54 31 -91 37 -96 35 -107 -14 -107 l-40 0 0
48 c0 26 -5 65 -11 87 -23 89 -23 85 4 85 17 0 26 -7 30 -22z"/>
<path d="M5505 3500 c-44 -19 -132 -89 -162 -128 -69 -91 -93 -224 -54 -307
39 -84 89 -104 258 -105 113 0 176 17 238 65 65 49 96 216 55 299 -29 61 -104
141 -153 165 -46 22 -143 28 -182 11z m77 -82 c-7 -7 -12 -24 -12 -39 0 -65
-93 -187 -167 -220 -24 -10 -43 -23 -43 -29 0 -17 43 -28 68 -19 33 13 36 11
21 -8 -24 -28 98 -12 148 20 86 55 143 151 129 220 -6 29 -6 30 13 13 11 -10
29 -40 40 -67 20 -46 21 -53 8 -108 -19 -79 -37 -106 -94 -132 -40 -19 -65
-22 -149 -22 -125 1 -169 14 -191 56 -28 52 -22 135 15 209 48 97 101 138 182
138 34 0 41 -3 32 -12z m69 -14 c17 -21 21 -80 8 -121 -14 -44 -78 -107 -141
-139 l-53 -27 45 49 c25 27 55 65 67 84 27 46 56 137 49 155 -7 20 8 19 25 -1z"/>
<path d="M6725 3741 c-6 -5 -75 -12 -155 -16 -80 -3 -149 -10 -154 -15 -5 -5
-6 -16 -3 -24 5 -12 20 -16 55 -16 l49 0 1 -325 c0 -178 3 -329 7 -335 4 -6
13 -73 20 -148 8 -75 19 -182 25 -237 6 -55 10 -149 10 -210 -1 -60 2 -150 6
-198 l7 -88 -54 3 c-52 3 -54 4 -55 33 -1 17 -4 179 -7 360 -4 209 -11 378
-22 460 -20 169 -31 596 -15 626 7 13 8 25 3 30 -16 16 -41 -1 -52 -33 -16
-47 -13 -429 5 -608 9 -97 17 -286 19 -505 2 -192 6 -357 9 -366 4 -8 20 -23
35 -32 38 -22 143 -23 161 -2 11 13 14 13 25 -2 11 -14 17 -15 36 -6 13 6 50
15 81 18 63 7 108 35 108 67 0 18 -4 20 -37 14 -21 -4 -67 -12 -103 -18 -36
-5 -72 -14 -81 -18 -13 -8 -15 -2 -15 38 1 26 -3 74 -7 106 -7 58 -7 59 11 43
36 -33 142 -14 150 26 4 19 -16 21 -105 8 l-53 -7 0 88 0 88 25 -16 c34 -22
100 -23 121 -2 16 16 15 17 -12 23 -16 3 -55 14 -86 23 l-58 17 0 47 c0 25 -2
53 -6 61 -4 11 9 15 57 20 57 5 90 19 77 32 -3 3 -37 9 -76 12 l-70 6 -4 56
-3 56 68 3 c77 3 121 16 114 35 -2 8 -31 12 -94 12 l-91 0 -15 85 c-10 57 -12
100 -7 130 4 24 6 59 3 76 -5 29 -3 32 15 27 11 -2 56 4 101 15 126 32 154 55
82 67 -51 8 -106 -2 -158 -30 l-43 -24 0 79 0 79 49 15 c27 8 73 17 103 21 68
9 88 19 71 36 -16 16 -128 16 -177 -1 -21 -6 -40 -9 -44 -5 -4 3 -7 45 -7 93
l0 87 75 6 c101 8 122 16 118 42 -3 23 -19 32 -33 18z"/>
<path d="M6900 3470 c0 -5 9 -10 21 -10 11 0 17 5 14 10 -3 6 -13 10 -21 10
-8 0 -14 -4 -14 -10z"/>
<path d="M4288 3368 c3 -14 -1 -18 -21 -18 -17 0 -37 -13 -61 -41 -39 -46 -42
-57 -52 -179 -6 -80 -8 -87 -41 -118 -55 -51 -84 -61 -210 -72 -65 -6 -137
-14 -161 -19 -55 -11 -225 -14 -290 -5 -46 6 -50 9 -42 25 20 36 12 107 -17
150 -34 52 -68 69 -138 69 -46 0 -59 -4 -76 -24 l-21 -24 -44 33 c-46 35 -91
50 -123 40 -32 -10 -54 -71 -48 -129 5 -51 24 -112 32 -105 2 3 9 36 15 74 17
115 16 113 47 107 15 -3 49 -28 75 -55 45 -47 48 -54 48 -102 0 -62 7 -58
-150 -75 -58 -6 -168 -20 -245 -30 -100 -14 -193 -20 -327 -19 l-187 1 -35 62
c-19 34 -37 73 -41 88 -4 14 -23 45 -43 68 -21 23 -51 58 -67 77 -25 28 -40
36 -78 40 -48 6 -91 -12 -111 -45 -6 -11 -10 -9 -20 9 -7 15 -25 27 -48 33
-81 20 -110 -41 -107 -228 1 -61 -2 -127 -5 -146 -5 -22 -1 -51 8 -79 9 -24
16 -65 16 -90 0 -26 6 -70 14 -97 8 -27 20 -83 26 -124 14 -98 45 -160 90
-183 31 -15 57 -17 210 -14 868 20 1134 28 1254 38 77 6 317 12 535 14 432 3
435 3 564 66 102 49 142 89 175 177 33 84 57 198 67 308 8 92 -11 281 -36 362
-43 138 -92 175 -188 144 l-49 -15 -26 30 c-31 36 -76 50 -68 21z m33 -75 c0
-5 2 -15 5 -23 44 -155 55 -214 55 -290 0 -77 -30 -290 -46 -331 -4 -11 -33
-23 -81 -34 -76 -18 -108 -18 -274 5 -48 7 -188 8 -390 4 -173 -3 -463 -7
-645 -8 -304 -1 -344 -4 -509 -29 -167 -25 -323 -34 -372 -21 -13 4 -38 35
-65 82 -24 42 -54 92 -68 110 -26 35 -50 135 -51 210 0 50 30 115 64 137 30
20 70 6 90 -32 8 -15 26 -39 40 -52 14 -14 26 -30 26 -36 0 -6 12 -34 26 -61
14 -27 35 -66 45 -86 11 -21 27 -42 37 -47 10 -5 124 -11 253 -12 186 -1 248
1 304 14 39 9 89 17 112 17 23 0 104 9 180 21 122 18 165 20 373 14 155 -4
259 -3 305 5 39 6 117 15 175 20 58 5 120 14 139 19 49 15 141 88 156 125 7
17 16 74 20 126 7 93 22 143 47 153 20 8 48 8 49 0z m156 -9 c57 -15 111 -257
98 -439 -11 -157 -56 -316 -104 -368 -14 -16 -51 -42 -82 -57 -114 -58 -129
-60 -579 -65 -228 -2 -458 -9 -510 -14 -53 -6 -289 -13 -525 -16 -237 -3 -475
-10 -530 -16 -57 -7 -156 -9 -230 -6 -160 7 -154 1 -183 177 -6 36 -15 90 -21
120 -5 30 -15 80 -20 110 -15 83 -24 407 -11 415 18 11 31 -5 20 -25 -7 -14
-7 -22 3 -31 10 -10 11 -22 3 -51 -14 -51 17 -242 45 -278 10 -14 40 -62 65
-107 26 -44 56 -93 68 -108 41 -52 177 -58 433 -20 211 32 254 34 828 40 259
3 497 7 530 11 39 4 110 -1 206 -15 175 -25 209 -26 291 -5 83 21 115 39 132
72 18 36 56 289 56 378 0 38 -9 104 -19 145 -10 41 -21 93 -24 117 -5 38 -3
42 16 42 12 0 32 -3 44 -6z m-1167 -184 c10 -5 28 -26 40 -45 17 -28 20 -43
15 -76 -8 -47 -28 -59 -84 -50 -31 6 -37 11 -43 41 -4 19 -10 47 -14 62 -3 15
-3 39 0 53 5 20 13 25 37 25 17 0 39 -4 49 -10z"/>
<path d="M6892 3343 c2 -10 13 -19 26 -21 17 -3 22 2 22 17 0 16 -6 21 -26 21
-19 0 -25 -5 -22 -17z"/>
<path d="M6842 3164 c-38 -26 -22 -74 24 -74 45 0 58 50 19 76 -18 12 -24 11
-43 -2z"/>
<path d="M6630 3096 c-39 -14 -56 -55 -23 -57 52 -4 183 37 183 56 0 19 -108
20 -160 1z"/>
<path d="M6820 2934 c0 -17 22 -14 28 4 2 7 -3 12 -12 12 -9 0 -16 -7 -16 -16z"/>
<path d="M6775 2770 c-4 -7 -1 -19 8 -27 19 -19 59 -8 55 15 -4 20 -53 29 -63
12z"/>
<path d="M6788 2619 c-22 -12 -23 -52 -3 -69 19 -15 61 -6 69 16 7 19 -19 64
-37 64 -6 0 -20 -5 -29 -11z"/>
<path d="M6815 2419 c-8 -12 23 -49 41 -49 25 0 27 23 3 41 -28 22 -35 23 -44
8z"/>
<path d="M6952 2237 c-12 -12 -26 -46 -32 -74 -14 -64 3 -105 51 -122 47 -16
91 15 109 80 8 29 6 42 -17 86 -23 47 -30 53 -58 53 -20 0 -39 -8 -53 -23z
m66 -59 c16 -34 1 -78 -28 -78 -16 0 -20 6 -20 33 0 75 22 96 48 45z"/>
</g>
</svg>
